PathFileType	4	(X/Y/Z)	Walk6.trc
DataRate	CameraRate	NumFrames	NumMarkers	Units	OrigDataRate	OrigDataStartFrame	OrigNumFrames
200.000000	200.000000	7	58	mm	200.000000	369	562
Frame#	Times		RBHD		RASI		RACR1		RUA1		RFA1		RCAR		C7		LFA1		RElbow		RTH3		RTH2		LElbowM		RTB3		LTH2		RTH1		RTB1		RLFC		RMT1		RTB2		RMT5		RTB4		LACR1		LTH3		LElbow		RWRR		LTH4		LWRU		LPSI		RPSI		LTB1		T10		LWRR		LLFC		RWRU		LBHD		LTB3		LTB2		RFHD		LTH1		LTB4		LMT1		LFHD		RBack		LMMAL		RTH4		LASI		LCAL		LLMAL		CLAV		LCAR		LMT5		RLMAL		LToe		RToe		RMMAL		LUA1		RElbowM		RCAL
			X1	Y1	Z1	X2	Y2	Z2	X3	Y3	Z3	X4	Y4	Z4	X5	Y5	Z5	X6	Y6	Z6	X7	Y7	Z7	X8	Y8	Z8	X9	Y9	Z9	X10	Y10	Z10	X11	Y11	Z11	X12	Y12	Z12	X13	Y13	Z13	X14	Y14	Z14	X15	Y15	Z15	X16	Y16	Z16	X17	Y17	Z17	X18	Y18	Z18	X19	Y19	Z19	X20	Y20	Z20	X21	Y21	Z21	X22	Y22	Z22	X23	Y23	Z23	X24	Y24	Z24	X25	Y25	Z25	X26	Y26	Z26	X27	Y27	Z27	X28	Y28	Z28	X29	Y29	Z29	X30	Y30	Z30	X31	Y31	Z31	X32	Y32	Z32	X33	Y33	Z33	X34	Y34	Z34	X35	Y35	Z35	X36	Y36	Z36	X37	Y37	Z37	X38	Y38	Z38	X39	Y39	Z39	X40	Y40	Z40	X41	Y41	Z41	X42	Y42	Z42	X43	Y43	Z43	X44	Y44	Z44	X45	Y45	Z45	X46	Y46	Z46	X47	Y47	Z47	X48	Y48	Z48	X49	Y49	Z49	X50	Y50	Z50	X51	Y51	Z51	X52	Y52	Z52	X53	Y53	Z53	X54	Y54	Z54	X55	Y55	Z55	X56	Y56	Z56	X57	Y57	Z57	X58	Y58	Z58

369	1.845	191.43	1551.3	348.45	261.24	909.69	430.92	258.33	1377.3	433.3	252.57	1196.4	531.98	368.62	974.5	580.76	508.72	862.92	554.52	176.73	1417.5	293.33	79.326	947.75	-20.525	248.16	1069.4	581.18	113.26	535.76	437.69	205.71	613.06	424.85	50.357	1090.4	116.69	-81.44	198.61	329.93	384.79	677.37	129.85	165.42	716.04	465.06	45.709	340.37	333.97	74.188	438.11	419.62	-95.691	40.145	273.08	-23.657	272.42	406.75	-117.69	33.923	361.2	-14.817	270.71	332.25	191.39	1399.2	115.05	361.01	564.36	117.35	54.684	1093.9	37.672	485.71	920.4	517.98	322.79	643.37	96.238	25.629	839.37	-14.456	97.803	940.93	208.29	88.139	940.92	313.11	462.5	385.6	209.29	85.685	1108.3	278.51	104.81	826.7	-0.34825	405.83	462.66	141.31	440.25	870.92	558.17	198	1552.9	210.11	474.42	200.91	224.43	447.45	286.18	147.84	373.15	1598.8	323.56	281.08	731.9	86.848	465.55	292.61	217.32	583.41	41.934	279.09	376.36	1593.9	242.16	117.7	1325	398.9	451.5	93.209	284.61	139.86	624.19	454.49	277.99	926.31	127	379.5	28.263	245.91	424.32	69.482	199.43	312.31	1340.4	265.48	76.137	781.3	-48.718	561.27	34.119	194.92	-191.16	148.52	370.79	624.71	53.304	263.88	-45.046	24.719	288.94	-163.87	150.71	283.46	109.01	1211	38.034	222.97	1024.5	494.45	-259.55	137.56	329.57
370	1.85	198.47	1551.4	347.41	268.45	909.82	430.6	265.72	1377.8	432.75	259.29	1196.8	531.57	373.69	974.04	580.43	512.78	861.4	554.62	184.14	1418	292.65	86.588	947.67	-20.618	253.75	1070	580.79	122.9	534.77	437.59	214.65	612.71	424.71	58.046	1090.2	116.61	-74.686	200.05	331.02	392.39	678.72	130.3	173.21	715.49	464.82	54.733	339.32	334.95	84.826	436.98	420.02	-95.004	40.323	273.08	-16.025	273.25	407.7	-117.19	34.37	361.06	-6.9051	270.91	333.24	198.8	1399	114.45	369.59	565.65	117.35	62.336	1093.8	37.41	490.15	919.17	517.97	330.94	644.32	95.97	32.606	839.42	-14.509	105.35	941.26	208.89	95.521	940.7	313.48	469.08	384.79	209.18	93.012	1108.6	279.08	112.29	826.34	-0.68332	414.33	462.86	141.49	444.34	869.9	558.25	205.02	1552.9	209.16	477.76	199.89	224.38	451.95	285.72	147.89	380.14	1599.4	322.33	288.66	732.44	85.936	470.52	291.88	217.34	585.05	41.591	279.59	383.25	1594.3	241.09	125.28	1325.5	398.51	452.64	93.026	284.79	148.67	623.33	454.25	285.72	927.29	126.81	380.31	28.741	245.84	425.24	69.4	199.54	319.81	1341	265.01	82.864	781.28	-48.982	562.57	33.657	194.31	-185.67	152.79	371.67	626.33	52.539	264.89	-45.251	24.575	289.44	-158.13	153.66	284.61	116.78	1210.9	37.746	227.66	1025.2	494.12	-254.06	143.66	329.99
371	1.855	205.38	1551.6	346.3	275.46	909.89	430.35	273.58	1378.4	432.19	265.99	1197.4	531.18	378.31	973.7	580.07	516.66	859.7	554.6	191.72	1418.5	291.97	94.151	947.67	-20.844	259.09	1070.4	580.26	132.88	533.56	437.52	223.85	612.83	424.39	65.872	1090.1	116.58	-67.466	201.63	332.15	399.4	680.46	130.88	181.07	714.99	464.34	64.651	338.55	335.97	95.456	436.13	420.58	-94.088	40.47	272.97	-8.2231	274.44	408.99	-115.7	34.966	361.09	1.6555	270.98	334.53	206.23	1399.3	113.87	378.39	567.15	117.71	69.94	1093.8	37.009	494.55	917.74	517.8	338.78	645.51	96.027	39.716	839.29	-14.531	112.76	941.47	208.9	102.84	940.6	313.73	475.73	384.01	208.84	99.851	1109.1	279.26	119.32	825.99	-1.0158	422.2	462.97	141.97	448.55	868.99	558.59	212.01	1553.1	208.14	481	199.21	224.43	456.12	285.11	148.02	387.02	1600.2	321.32	295.35	732.83	85.257	475.56	291.28	217.42	586.1	40.087	280.3	390.23	1595	240.15	132.78	1326.4	398.07	453.6	92.859	285.01	157.59	622.62	454.05	293.12	928.4	126.86	380.47	29.122	245.54	426.4	69.492	199.59	327.34	1341.2	264.46	89.875	781.07	-49.346	563.76	33.279	194.18	-179.79	156.76	372.48	628.02	50.408	265.47	-45.165	24.648	289.98	-151.45	156.65	285.67	124.34	1210.8	37.521	232.61	1026.2	493.62	-247.45	150.1	330.16
372	1.86	212.44	1552.3	345.45	282.33	910.24	430.03	281.37	1379.1	431.72	272.47	1198.1	530.79	382.96	973.27	579.86	520.38	858.36	555.12	199.16	1419.1	291.18	101.72	947.76	-21.16	264.65	1071.1	579.97	143.27	532.3	437.54	233.63	612.74	424.19	73.763	1090	116.5	-59.811	203.08	333.42	406.32	682.41	131.37	189.2	714.47	463.75	75.06	337.53	336.94	106.27	434.89	421.17	-92.44	41.104	272.92	-0.005257	275.15	409.83	-114	35.657	361.12	10.474	270.97	335.88	213.65	1399.3	113.21	386.98	568.79	118.21	77.657	1093.9	36.565	498.98	916.18	517.91	346.25	646.6	96.147	47.303	838.89	-14.293	119.98	942.35	209.02	109.92	941	314.09	482.25	383.35	208.59	106.84	1109.9	279.35	126.67	825.92	-1.2808	429.35	463.27	142.59	452.26	867.84	558.49	219.19	1553.1	207.07	483.92	198.58	224.45	460.06	284.75	148.02	394.08	1601.1	320.24	302.16	733.36	84.617	480.18	290.56	217.19	586.46	40.594	280.46	397.22	1595.4	238.98	140.28	1327.4	397.94	454.2	92.753	285.35	166.87	621.76	453.79	299.93	929.47	126.94	380.54	29.325	245.32	427.66	69.679	199.57	334.58	1341.5	264.05	96.99	781.16	-49.501	564.63	33.035	194.11	-173.37	160.84	373	629.56	47.419	266.32	-45.332	24.652	291.12	-144.09	159.74	286.75	132.19	1210.6	37.042	237.79	1027.1	493.07	-240.16	156.72	330.21
373	1.865	219.45	1552.7	344.57	288.93	910.77	429.71	289	1379.8	431.16	279.34	1198.6	530.37	387.24	972.97	579.59	523.71	856.55	555.5	206.28	1419.7	290.61	109.34	947.81	-21.494	270.04	1072	579.71	154.26	530.98	437.83	243.14	612.78	424.15	81.673	1090.3	116.25	-51.416	204.3	334.53	413.2	684.2	132.03	197.42	714.21	463.21	85.735	336.43	337.97	118.24	433.75	421.89	-91.462	41.542	273.41	9.0471	275.98	410.51	-112.25	36.367	360.96	20.041	270.94	337.43	221.06	1399.5	112.87	395.4	570.46	118.42	85.44	1094.1	36.284	502.84	914.69	518.03	353.75	647.64	96.284	54.865	838.91	-14.468	127.11	942.75	209.12	116.81	941.37	313.92	488.72	382.86	208.27	114.01	1110.5	279.51	134.49	825.97	-1.7857	435.65	463.27	143.43	455.63	866.92	558.28	226.48	1553	206.33	486.55	198.03	224.66	463.82	284.41	148.01	401.17	1602	319.13	308.98	733.98	84.131	484.58	290.05	216.98	586.98	40.099	281.28	404.23	1596.3	237.91	147.85	1328.6	397.93	454.55	92.836	285.83	176.29	621.06	453.52	307.31	930.87	127.01	380.74	29.477	245.28	428.42	69.841	199.8	341.98	1342.1	263.69	104.33	781.02	-49.704	565.25	32.821	193.96	-165.97	164.89	373.6	630.64	45.514	267.61	-44.812	24.72	291.06	-136.09	162.77	287.82	139.93	1210.7	36.869	243.08	1028.1	492.58	-232.26	163.29	330.81
374	1.87	226.92	1553.4	343.82	295.4	910.99	429.51	296.78	1380.6	430.51	285.63	1199.5	530.1	391.67	972.67	579.43	526.72	854.67	555.23	213.58	1420.8	290.4	117.16	947.69	-21.506	275.31	1072.6	579.16	165.53	529.68	438.08	252.72	612.7	424.36	89.511	1090.4	115.81	-42.496	205.42	335.94	420.15	685.74	132.45	205.55	713.72	462.67	97.206	335.59	338.89	130.16	432.74	422.5	-89.698	41.918	273.93	18.466	277.28	411.41	-110.34	37.865	360.79	30.553	270.9	338.82	228.69	1399.8	112.35	403.36	571.72	118.51	93.268	1094	36.069	506.76	913.01	518.13	361.67	648.71	96.435	62.488	839.51	-14.796	134.2	943.11	209.21	123.51	941.62	313.86	494.4	382.38	208.06	120.98	1110.7	279.83	142.21	826.15	-2.1158	441.6	463.38	144.1	458.94	865.74	558.26	233.37	1552.7	205.59	488.91	197.65	224.87	467.09	283.96	148.37	407.96	1603	318.1	316.23	734.77	83.849	488.92	289.68	217	587.58	39.199	281.88	411.25	1596.9	236.86	155.28	1329.7	397.69	454.81	92.94	286.32	185.87	620.24	453.33	314.75	932.29	126.8	380.9	29.623	245.38	428.92	70.017	200.16	349.16	1342.5	263.37	112.05	781.42	-49.915	565.67	32.652	193.85	-157.83	168.7	374.62	631.91	43.721	269.38	-44.22	24.669	291.22	-127.71	165.65	288.97	147.9	1210.7	36.609	248.64	1029.2	492.08	-223.56	169.78	331.47
375	1.875	234.15	1554.1	343	301.69	911.29	429.11	304.11	1381.4	429.99	292.39	1200.4	529.86	396.2	972.21	579.3	529.76	852.75	555.49	220.85	1421.4	289.84	125.17	947.86	-21.571	280.74	1073.5	578.36	176.61	528.39	438.32	262.64	612.85	424.43	97.454	1090.5	115.64	-32.999	206.47	337.38	427.49	687.21	132.91	213.5	713.19	461.98	108.71	334.39	339.81	142.29	431.63	423.22	-87.485	42.907	273.97	28.196	278.26	412.41	-107.28	39.602	360.62	40.934	270.54	339.81	236.08	1400.3	112	410.92	572.69	118.5	101.25	1094.3	36.113	510.44	911.25	517.99	368.87	649.53	96.784	70.315	839.67	-15.072	140.99	944.16	209.22	130.24	941.94	313.65	499.64	381.83	208.24	127.96	1111.6	280.06	150.02	826.28	-2.2122	446.93	463.63	144.38	462.12	864.4	558.05	240.31	1553.4	204.77	491.2	197.26	225.34	470.19	283.72	148.89	415.08	1603.9	317.02	323.15	735.29	83.704	492.63	289.13	217.51	588.36	38.511	282.1	418.16	1597.6	235.69	162.43	1330.9	397.85	455.14	92.939	286.85	195.7	619.45	453.23	321.53	933.64	126.57	381.05	29.885	245.36	429.47	70.344	200.49	356.18	1343.3	263.1	119.8	781.54	-50.331	565.93	32.503	193.8	-149.14	172.13	375.22	632.95	41.692	269.85	-44.005	24.76	292.81	-118.72	168.49	289.94	155.6	1210.9	36.4	253.99	1030.5	491.45	-214.13	176.16	332
